<svg xmlns="http://www.w3.org/2000/svg" viewBox="0 0 160 160" fill="none">
  <!-- 只保留参考图中的黑色部分；白色区域由透明背景和镂空眼环承担。 -->
  <path
    fill="#000000"
    fill-rule="evenodd"
    d="M80 10a70 70 0 1 0 49.2 20.2l-10.8 2.7A57 57 0 1 1 80 23a56.7 56.7 0 0 1 25.2 5.9l10.5-4.2A69.6 69.6 0 0 0 80 10Zm47.8 19.4c-18.9-1.1-36.1 5.7-49 19.3-8.5 8.9-14.4 19.6-18 30.6l-9.2 3.1c-5 1.7-9.6 4.9-12.8 9.1l-7.5 9.9 21.4-5.8 7.2 7.2-6.5 20.2 10.3 10.3 20.2-6.5 7.1 7.2-5.7 21.4 9.8-7.5c4.2-3.2 7.4-7.8 9.1-12.8l3.2-9.3c11-3.5 21.6-9.4 30.5-17.9 13.6-13 20.4-30.2 19.3-49l-.4-7.2-7.2-.3Zm-22.5 19.5a21.1 21.1 0 1 1-29.8 29.8 21.1 21.1 0 0 1 29.8-29.8Zm-73 61.2-18.1 31.7 31.7-18.1-13.6-13.6Zm-12.7-16.4-12.4 27 23-22.9-10.6-4.1Zm46.7 46.7-4.1-10.6-22.9 23 27-12.4Z"
  />
  <circle cx="90.4" cy="63.8" r="12.2" fill="#000000" />
</svg>
